<?xml version="1.0" standalone="no"?><svg xmlns="http://www.w3.org/2000/svg" viewBox="0 0 1440 320"><path fill="#0099ff" fill-opacity="1" d="M0,192L17.1,181.3C34.3,171,69,149,103,165.3C137.1,181,171,235,206,213.3C240,192,274,96,309,80C342.9,64,377,128,411,154.7C445.7,181,480,171,514,138.7C548.6,107,583,53,617,58.7C651.4,64,686,128,720,144C754.3,160,789,128,823,144C857.1,160,891,224,926,240C960,256,994,224,1029,186.7C1062.9,149,1097,107,1131,122.7C1165.7,139,1200,213,1234,218.7C1268.6,224,1303,160,1337,128C1371.4,96,1406,96,1423,96L1440,96L1440,0L1422.9,0C1405.7,0,1371,0,1337,0C1302.9,0,1269,0,1234,0C1200,0,1166,0,1131,0C1097.1,0,1063,0,1029,0C994.3,0,960,0,926,0C891.4,0,857,0,823,0C788.6,0,754,0,720,0C685.7,0,651,0,617,0C582.9,0,549,0,514,0C480,0,446,0,411,0C377.1,0,343,0,309,0C274.3,0,240,0,206,0C171.4,0,137,0,103,0C68.6,0,34,0,17,0L0,0Z"></path></svg>